<svg id="Group_258" data-name="Group 258" xmlns="http://www.w3.org/2000/svg" width="45.492" height="29.141" viewBox="0 0 45.492 29.141">
  <path id="Path_732" data-name="Path 732" d="M203.492,334.48v23.96a3.126,3.126,0,0,1-2.59,2.59H160.59a3.121,3.121,0,0,1-2.59-2.59V334.48a3.126,3.126,0,0,1,2.59-2.59H200.9A3.126,3.126,0,0,1,203.492,334.48Zm-22.768,25.946c6.286,0,12.572.01,18.858,0,2.72-.006,3.3-.613,3.3-3.356q0-10.522,0-21.044c0-3-.537-3.532-3.536-3.532q-18.373,0-36.745,0c-.593,0-1.187.009-1.779.045a2.139,2.139,0,0,0-2.17,2.147c-.029.457-.035.916-.035,1.375q0,10.4,0,20.8c0,.512,0,1.027.044,1.536a2.13,2.13,0,0,0,2,1.982c.376.034.754.044,1.132.045Q171.254,360.426,180.723,360.426Z" transform="translate(-158 -331.89)"/>
  <path id="Path_733" data-name="Path 733" d="M183.891,363.528q-9.469,0-18.939,0c-.377,0-.756-.011-1.132-.045a2.13,2.13,0,0,1-2-1.982c-.045-.509-.044-1.024-.044-1.536q0-10.4,0-20.8c0-.458.006-.918.035-1.375a2.139,2.139,0,0,1,2.17-2.147c.592-.037,1.186-.045,1.779-.045q18.372,0,36.745,0c3,0,3.536.535,3.536,3.532q0,10.522,0,21.044c0,2.743-.577,3.35-3.3,3.356C196.463,363.539,190.177,363.529,183.891,363.528Zm-6.2-17.634a2.713,2.713,0,0,0-3.4-.908,2.4,2.4,0,0,1-1.85.077,2.833,2.833,0,0,0-4,2.235,6.843,6.843,0,0,0,1.948,6.053,1.427,1.427,0,0,0,1.775.312,2.827,2.827,0,0,1,2.486-.01,1.446,1.446,0,0,0,1.887-.41,19.324,19.324,0,0,0,1.367-2.17.639.639,0,0,0-.161-.575C176.032,348.978,176,347.584,177.69,345.894Zm4.35,3.491a17.976,17.976,0,0,0,2.785-.339,2.968,2.968,0,0,0,2.221-2.859,2.737,2.737,0,0,0-1.346-2.817c-1.485-.82-3.042-.514-4.574-.319v10.725l.914-.046Zm9.847-.471c-.312,0-.578-.022-.84,0a4.627,4.627,0,0,0-2.838.991,2.363,2.363,0,0,0-.553,2.867,2.254,2.254,0,0,0,2.624,1.082,12.353,12.353,0,0,0,1.727-.793l.162.715.727-.039c0-1.694.021-3.332-.006-4.97-.026-1.572-.628-2.564-1.779-2.848a3.679,3.679,0,0,0-3.186.6l.341.676C190.516,346.06,191.947,346.712,191.887,348.915Zm8.693-2.819c-.833-.288-1.111.022-1.319.64-.506,1.5-1.084,2.975-1.632,4.461-.111.3-.219.6-.37,1.023-.75-1.944-1.458-3.713-2.11-5.5-.237-.648-.567-.914-1.283-.63.861,2.213,1.7,4.417,2.583,6.6a1.443,1.443,0,0,1-.123,1.586c-.671.807-1.386,1.577-2.167,2.46l.228.473a4.048,4.048,0,0,0,2.57-2.408C198.222,351.934,199.372,349.017,200.58,346.1Zm-25.289-4.216a2.356,2.356,0,0,0-2.227,2.644A2.349,2.349,0,0,0,175.291,341.881Z" transform="translate(-161.167 -334.993)" fill="#fff"/>
  <path id="Path_734" data-name="Path 734" d="M211.548,393.254c-1.694,1.69-1.659,3.084.054,4.6a.639.639,0,0,1,.161.575,19.319,19.319,0,0,1-1.367,2.17,1.446,1.446,0,0,1-1.887.41,2.827,2.827,0,0,0-2.487.011,1.427,1.427,0,0,1-1.775-.312,6.843,6.843,0,0,1-1.948-6.053,2.833,2.833,0,0,1,4-2.235,2.4,2.4,0,0,0,1.85-.077A2.713,2.713,0,0,1,211.548,393.254Z" transform="translate(-195.025 -382.353)"/>
  <path id="Path_735" data-name="Path 735" d="M282.2,386.858V391.2l-.914.045V380.525c1.532-.195,3.089-.5,4.574.319a2.737,2.737,0,0,1,1.346,2.817,2.968,2.968,0,0,1-2.221,2.859A17.983,17.983,0,0,1,282.2,386.858Zm.041-.977c1.441.064,2.855.29,3.7-1.13a2.275,2.275,0,0,0-.1-2.664c-.937-1.192-2.276-.945-3.6-.845Z" transform="translate(-261.329 -372.466)"/>
  <path id="Path_736" data-name="Path 736" d="M324.493,401.739c.059-2.2-1.371-2.855-3.621-1.712l-.341-.676a3.679,3.679,0,0,1,3.187-.6c1.15.284,1.753,1.276,1.779,2.848.027,1.638.006,3.276.006,4.97l-.727.039-.162-.715a12.351,12.351,0,0,1-1.727.793,2.254,2.254,0,0,1-2.624-1.082,2.363,2.363,0,0,1,.553-2.867,4.626,4.626,0,0,1,2.838-.991C323.915,401.717,324.182,401.739,324.493,401.739Zm.035.575a24.3,24.3,0,0,0-2.812.822,1.384,1.384,0,0,0-.7,1.652,1.333,1.333,0,0,0,1.13,1.11,2.092,2.092,0,0,0,2.377-1.76C324.562,403.638,324.528,403.131,324.528,402.314Z" transform="translate(-293.773 -387.817)"/>
  <path id="Path_737" data-name="Path 737" d="M366.688,399.84c-1.208,2.921-2.358,5.838-3.624,8.7a4.049,4.049,0,0,1-2.57,2.408l-.228-.473c.782-.882,1.5-1.653,2.167-2.46a1.443,1.443,0,0,0,.123-1.586c-.883-2.187-1.722-4.391-2.583-6.6.716-.284,1.047-.018,1.283.63.653,1.789,1.36,3.558,2.11,5.5.152-.419.259-.722.37-1.023.548-1.486,1.126-2.961,1.632-4.461C365.577,399.861,365.855,399.552,366.688,399.84Z" transform="translate(-327.275 -388.737)"/>
  <path id="Path_738" data-name="Path 738" d="M233.556,374.433a2.349,2.349,0,0,1-2.227,2.644A2.356,2.356,0,0,1,233.556,374.433Z" transform="translate(-219.432 -367.546)"/>
  <path id="Path_739" data-name="Path 739" d="M287.186,390.268v-4.639c1.32-.1,2.659-.347,3.6.845a2.275,2.275,0,0,1,.1,2.664C290.041,390.558,288.627,390.332,287.186,390.268Z" transform="translate(-266.272 -376.852)" fill="#fff"/>
  <path id="Path_740" data-name="Path 740" d="M329.585,421.436c0,.818.034,1.324-.007,1.824a2.092,2.092,0,0,1-2.377,1.76,1.333,1.333,0,0,1-1.13-1.11,1.384,1.384,0,0,1,.7-1.652A24.3,24.3,0,0,1,329.585,421.436Z" transform="translate(-298.83 -406.939)" fill="#fff"/>
</svg>
