<svg xmlns="http://www.w3.org/2000/svg" width="10" height="5.361" viewBox="0 0 10 5.361">
  <g id="Group_332" data-name="Group 332" transform="translate(0 5.361) rotate(-90)">
    <g id="Group_6" data-name="Group 6" transform="translate(0 0)">
      <path id="Path_3" data-name="Path 3" d="M.412,5.928,4.691,9.9a.394.394,0,0,0,.258.1.4.4,0,0,0,.258-.722L.928,5.309A.367.367,0,0,1,.773,5a.445.445,0,0,1,.155-.309L5.206.722A.367.367,0,0,0,5.361.412.443.443,0,0,0,4.949,0a.394.394,0,0,0-.258.1L.412,4.072A1.207,1.207,0,0,0,0,5a1.91,1.91,0,0,0,.412.928"/>
    </g>
  </g>
</svg>
