<svg id="Group_395" data-name="Group 395" xmlns="http://www.w3.org/2000/svg" width="27.451" height="22.193" viewBox="0 0 27.451 22.193">
  <path id="Path_1083" data-name="Path 1083" d="M501.341-100.769a2.47,2.47,0,0,1,.215.172q5.324,5.313,10.646,10.628a2.17,2.17,0,0,1,.17.211l4.255-4.236-6.793-6.825,6.847-6.787-4.327-4.336a2.466,2.466,0,0,1-.228.3q-5.255,5.272-10.516,10.539c-.083.083-.179.153-.269.229Z" transform="translate(-501.341 111.952)" fill="#fff"/>
  <path id="Path_1084" data-name="Path 1084" d="M277.363-112.11c-.242.253-.48.51-.727.758q-5.077,5.088-10.156,10.174c-.06.06-.117.122-.153.159l11.037,11.09,4.208-4.2-6.827-6.841,6.929-6.881c-.287-.274-.533-.5-.769-.734q-1.671-1.663-3.336-3.331a2.149,2.149,0,0,1-.155-.195Z" transform="translate(-254.224 112.11)" fill="#fff"/>
</svg>
