<svg xmlns="http://www.w3.org/2000/svg" width="27.451" height="22.193" viewBox="0 0 27.451 22.193">
  <g id="Group_394" data-name="Group 394" transform="translate(-266.326 112.109)">
    <path id="Path_1083" data-name="Path 1083" d="M516.68-100.769a2.468,2.468,0,0,0-.215.172q-5.324,5.313-10.645,10.629a2.17,2.17,0,0,0-.17.211L501.4-93.994l6.792-6.825-6.847-6.788,4.327-4.336a2.466,2.466,0,0,0,.228.3q5.255,5.272,10.516,10.539c.083.083.179.153.269.229Z" transform="translate(-222.903 -0.158)" fill="#fff"/>
    <path id="Path_1084" data-name="Path 1084" d="M270.639-112.11c.242.253.48.51.727.758q5.077,5.088,10.156,10.174c.06.06.117.122.153.159l-11.037,11.09-4.208-4.2,6.826-6.842-6.929-6.881c.287-.274.533-.5.769-.734q1.671-1.663,3.336-3.331a2.148,2.148,0,0,0,.155-.195Z" fill="#fff"/>
  </g>
</svg>
