<svg xmlns="http://www.w3.org/2000/svg" width="109.5" height="5.465" viewBox="0 0 109.5 5.465">
  <path id="Path_1085" data-name="Path 1085" d="M-23.1,182.979c-.223-.011-.317.106-.317.183,0,.335-.342.376-.782.358-.06,0-.121.006-.181.009-.281-.036-.568-.021-.855-.055-1.112-.133-2.238-.22-3.368-.288a2.936,2.936,0,0,0-1.158-.172c-1.228-.083-2.453-.188-3.68-.277-.6-.043-1.2-.071-1.791-.14a17.17,17.17,0,0,0-2.934-.16c-.273-.015-.547-.028-.82-.045-1.257-.075-2.5-.212-3.776-.18a2.7,2.7,0,0,0-.8-.091c-.535-.014-1.075-.005-1.6-.051-.973-.085-1.954-.11-2.93-.173-1.158-.016-2.3-.179-3.466-.131-.023-.062-.09-.093-.195-.087-.791.046-1.546-.133-2.33-.128a1.963,1.963,0,0,1-.318-.013c-.763-.124-1.557-.11-2.331-.181l-1.008-.017a27.836,27.836,0,0,0-3.031-.1l-.461,0c-.78-.058-1.565-.016-2.353-.092-.759-.073-1.552-.02-2.33-.022-1.59-.077-3.18-.147-4.778-.1l-4.594-.005c-1.318-.034-2.636-.024-3.953.007-.244,0-.495-.018-.732.007-1.168.124-2.354.133-3.53.2a11.893,11.893,0,0,0-1.719.1c-1.139-.036-2.261.087-3.392.125a13.21,13.21,0,0,0-1.742.082,28.092,28.092,0,0,0-3.128.126l-.734.008a26.773,26.773,0,0,0-2.84.1l-.651.012a10.265,10.265,0,0,0-1.149.067c-.844.041-1.692.048-2.536.117-.51.042-1.035.021-1.554.028a4.671,4.671,0,0,0-1.238.1c-.837.1-1.685.088-2.528.12-.247.027-.548-.1-.735.094l-.185.011a36.521,36.521,0,0,0-4.592.1l-.409-.006c-1.441-.027-2.854.14-4.279.221-1.5-.078-2.989.1-4.485.132a.942.942,0,0,0-.238.069l-2.08.028c-1.15-.075-2.274.114-3.416.121a6.159,6.159,0,0,1-1.7-.118c-.9-.249-1.607-.842-1.592-1.4.009-.311.734-.781,1.257-.78.805,0,1.6-.089,2.384-.152s1.552-.2,2.329-.261a23.613,23.613,0,0,1,2.494-.153,1.521,1.521,0,0,0,.742-.094c1.168.04,2.312-.137,3.476-.132.8.071,1.579-.1,2.376-.091.879.006,1.737-.15,2.621-.127a1.886,1.886,0,0,0,.424-.088c1.385.036,2.758-.07,4.135-.128.463.043.884-.1,1.35-.095,1.188.023,2.371-.034,3.55-.128.114-.009.212-.014.247-.09,1.295.053,2.567-.144,3.86-.121.751-.017,1.5-.021,2.251-.074,1.1-.077,2.211-.176,3.332-.144a2.257,2.257,0,0,0,.8-.079c1.25.028,2.48-.117,3.724-.143.579.042,1.123-.107,1.706-.1.967.016,1.918-.151,2.892-.127a1.739,1.739,0,0,0,.382-.078,22.849,22.849,0,0,0,3.113-.125c2.937-.091,5.877-.114,8.818-.112l1.562,0q2.621.016,5.238.106l.561.012a1.837,1.837,0,0,0,.262.034c1.466-.017,2.927.064,4.391.085.35,0,.7.017,1.05.035.974.052,1.933.194,2.92.162,1.05.022,2.1.012,3.145.118a17.059,17.059,0,0,0,1.845.133c1.27.146,2.579-.032,3.834.185a33.667,33.667,0,0,0,3.842.127,19,19,0,0,0,2.449.174,22.307,22.307,0,0,0,2.9.136,19.988,19.988,0,0,1,2.023.153c.728.063,1.439.2,2.184.19.085.131.284.085.436.089.836.024,1.637.167,2.455.251.7.071,1.385.159,2.089.193a2.954,2.954,0,0,0,.932.11,12.639,12.639,0,0,0,1.641.277c.7.09,1.39.231,2.113.267a10.417,10.417,0,0,0,1.449.322c.523.107.991.283,1.536.37.445.071.443.269.3.541C-21.328,182.771-22.2,182.88-23.1,182.979Z" transform="translate(130.426 -178.064)" fill="#e8268e"/>
</svg>
