<svg xmlns="http://www.w3.org/2000/svg" width="71" height="3.154" viewBox="0 0 71 3.154">
  <path id="Path_1086" data-name="Path 1086" d="M-60.837,180.9c-.145-.006-.206.061-.206.105,0,.193-.222.217-.507.207-.039,0-.078,0-.118.005-.182-.021-.368-.012-.554-.032-.721-.077-1.451-.127-2.184-.166a2.12,2.12,0,0,0-.751-.1c-.8-.048-1.591-.109-2.386-.16-.386-.025-.778-.041-1.162-.081a12.488,12.488,0,0,0-1.9-.093l-.532-.026c-.815-.043-1.624-.122-2.448-.1a1.955,1.955,0,0,0-.516-.053c-.347-.008-.7,0-1.039-.03-.631-.049-1.267-.063-1.9-.1-.751-.009-1.492-.1-2.247-.075-.015-.036-.058-.054-.126-.05-.513.027-1-.077-1.511-.074a1.428,1.428,0,0,1-.206-.008c-.495-.072-1.009-.063-1.512-.1l-.654-.01c-.652-.053-1.307-.066-1.966-.056l-.3,0c-.506-.033-1.015-.01-1.525-.053-.492-.042-1.006-.011-1.511-.013-1.031-.045-2.062-.085-3.1-.059l-2.979,0c-.855-.019-1.709-.014-2.563,0-.158,0-.321-.01-.474,0-.757.071-1.526.077-2.289.116a8.656,8.656,0,0,0-1.115.061c-.738-.021-1.466.05-2.2.072a9.616,9.616,0,0,0-1.13.047c-.678.013-1.359-.008-2.028.072l-.476,0c-.616,0-1.232,0-1.841.057l-.422.007c-.255-.014-.5.028-.745.039-.547.024-1.1.028-1.644.068-.331.024-.671.012-1.007.016a3.391,3.391,0,0,0-.8.06c-.543.057-1.092.051-1.639.069-.16.015-.355-.055-.476.054l-.12.006a26.6,26.6,0,0,0-2.977.058l-.265,0c-.935-.016-1.85.081-2.774.128-.976-.045-1.938.058-2.908.076a.669.669,0,0,0-.154.04l-1.349.016c-.746-.043-1.475.066-2.215.07a4.475,4.475,0,0,1-1.1-.068c-.586-.144-1.042-.486-1.032-.807.006-.179.476-.451.815-.45.522,0,1.036-.051,1.546-.087s1.007-.114,1.51-.151c.534-.039,1.07-.1,1.617-.088a1.1,1.1,0,0,0,.481-.054c.757.023,1.5-.079,2.254-.076.52.041,1.024-.055,1.54-.052.57,0,1.126-.087,1.7-.073a1.356,1.356,0,0,0,.275-.051c.9.021,1.788-.041,2.681-.074.3.025.573-.06.875-.055.77.013,1.538-.02,2.3-.074.074-.005.137-.008.16-.052.84.03,1.665-.083,2.5-.07.487-.01.97-.012,1.459-.043.714-.044,1.434-.1,2.161-.083a1.637,1.637,0,0,0,.517-.046c.81.016,1.608-.067,2.415-.083.376.024.728-.062,1.106-.056.627.009,1.244-.087,1.875-.073a1.251,1.251,0,0,0,.248-.045,16.625,16.625,0,0,0,2.018-.072c1.9-.053,3.811-.066,5.717-.065l1.013,0q1.7.009,3.4.061l.364.007a1.332,1.332,0,0,0,.17.02c.951-.01,1.9.037,2.847.049.227,0,.455.01.681.02.631.03,1.253.112,1.893.093.681.013,1.364.007,2.039.068.387.078.8.037,1.2.077.823.084,1.672-.019,2.486.107a24.514,24.514,0,0,0,2.491.073,13.822,13.822,0,0,0,1.588.1,16.234,16.234,0,0,0,1.878.079c.446-.006.875.055,1.311.088.472.036.933.113,1.416.11.055.075.184.049.283.051.542.014,1.062.1,1.592.145.451.041.9.092,1.355.111a2.139,2.139,0,0,0,.6.063,9.119,9.119,0,0,0,1.064.16c.456.052.9.133,1.37.154a7.476,7.476,0,0,0,.94.186c.339.061.642.163,1,.213.289.041.287.155.2.312C-59.686,180.781-60.251,180.844-60.837,180.9Z" transform="translate(130.426 -178.064)" fill="#fc2"/>
</svg>
