<svg id="Group_189" data-name="Group 189" xmlns="http://www.w3.org/2000/svg" width="28.662" height="28.578" viewBox="0 0 28.662 28.578">
  <path id="Path_308" data-name="Path 308" d="M143.434,88.1q.834-.831,1.669-1.661c.477-.471.961-.935,1.434-1.409.093-.094.146-.109.247-.008q.723.72,1.461,1.425c.1.093.078.15,0,.24-.569.684-1.117,1.384-1.68,2.071-.394.481-.78.972-1.161,1.465a.229.229,0,0,0-.022.077c-.089.022-.126.1-.177.164-.421.521-.844,1.041-1.261,1.565-.318.4-.629.806-.943,1.209a1.161,1.161,0,0,0-.087.088q-1.392,1.728-2.784,3.458-2.208,2.746-4.415,5.493c-.57.711-1.135,1.426-1.7,2.139-.065,0-.1-.044-.138-.084q-3.549-3.544-7.1-7.085c-.108-.107-.1-.162,0-.269.559-.63,1.11-1.268,1.663-1.9.192-.222.189-.222.448-.062q2.212,1.368,4.423,2.739a.227.227,0,0,0,.337-.041c.762-.758,1.531-1.509,2.3-2.263l4.806-4.729,1.2-1.165a3.5,3.5,0,0,0,.79-.685c.158-.138.289-.419.454-.437C143.473,88.4,143.423,88.26,143.434,88.1Z" transform="translate(-119.65 -84.615)" fill="#039e55"/>
  <path id="Path_309" data-name="Path 309" d="M-24.9,430.2a13.349,13.349,0,0,1-3.155-.342,14.145,14.145,0,0,1-5.812-2.805A14.24,14.24,0,0,1-37.9,421.9a14.1,14.1,0,0,1-1.233-4.443c-.022-.2-.039-.405-.044-.609s0-.435,0-.653c-.005-.178.072-.255.249-.254q1.57,0,3.14,0c.125,0,.18.034.173.166-.008.147,0,.3,0,.442,0,.05-.028.119.059.134a10.281,10.281,0,0,0,.6,2.832,10.573,10.573,0,0,0,6.435,6.429,10.769,10.769,0,0,0,3.612.639Z" transform="translate(39.222 -401.625)" fill="#3f82f5"/>
  <path id="Path_310" data-name="Path 310" d="M-39.245,90.22a13.851,13.851,0,0,1,1.809-6.086,14.2,14.2,0,0,1,4.664-4.956,14.2,14.2,0,0,1,5.229-2.08,13.7,13.7,0,0,1,2.412-.227c.056,0,.111.01.166.015q0,1.8,0,3.6c-.077.006-.153.016-.23.017a10.448,10.448,0,0,0-3.539.677A10.566,10.566,0,0,0-33.3,84.494a10.484,10.484,0,0,0-2.318,5.857,2.215,2.215,0,0,0-.065.58c0,.123-.038.175-.169.174q-1.613-.007-3.226,0c-.145,0-.179-.056-.174-.188C-39.241,90.683-39.246,90.451-39.245,90.22Z" transform="translate(39.295 -76.869)" fill="#dc4531"/>
  <path id="Path_311" data-name="Path 311" d="M408.756,415.031a11.748,11.748,0,0,1-.174,2.286,14.108,14.108,0,0,1-2.836,6.5,14.316,14.316,0,0,1-4.213,3.645,1.268,1.268,0,0,1-.154.064c-.374-.383-.746-.768-1.122-1.149-.466-.471-.937-.938-1.405-1.406-.054-.054-.1-.118-.191-.119l.014-.042c.109-.046.221-.087.328-.138a10.634,10.634,0,0,0,4.819-4.553,10.472,10.472,0,0,0,1.2-3.656c.065-.475.06-.952.1-1.427l2.607-.01C408.072,415.029,408.414,415.031,408.756,415.031Z" transform="translate(-380.129 -400.753)" fill="#027e44"/>
  <path id="Path_312" data-name="Path 312" d="M299.09,80.47q0-1.8,0-3.6a8.362,8.362,0,0,1,1.535.066,12.608,12.608,0,0,1,1.432.222,14.446,14.446,0,0,1,4.451,1.764,19.932,19.932,0,0,1,1.833,1.306.837.837,0,0,1,.119.144c-.186.19-.376.378-.559.572-.273.29-.588.539-.838.851l-1.2,1.165c0-.058-.05-.082-.086-.112a10.4,10.4,0,0,0-3.485-1.87,12.025,12.025,0,0,0-1.608-.373C300.154,80.515,299.619,80.533,299.09,80.47Z" transform="translate(-284.761 -76.852)" fill="#f4b504"/>
  <path id="Path_313" data-name="Path 313" d="M518.127,220.21c-.342,0-.684,0-1.026,0l-2.607.01c-.062-.375-.02-.755-.066-1.132a11.406,11.406,0,0,0-.5-2.27,10.36,10.36,0,0,0-1.077-2.258c.314-.4.625-.809.943-1.209.417-.524.84-1.044,1.261-1.565.051-.063.088-.142.177-.164a10.074,10.074,0,0,1,1.08,1.616,13.693,13.693,0,0,1,1.419,3.6A13.094,13.094,0,0,1,518.127,220.21Z" transform="translate(-489.5 -205.931)" fill="#c49103"/>
  <path id="Path_314" data-name="Path 314" d="M303.163,647.779c.088,0,.137.064.191.119.469.468.939.935,1.406,1.406.377.38.748.766,1.122,1.148a12.471,12.471,0,0,1-2.476,1.091,14.382,14.382,0,0,1-4.324.71c-.042,0-.084,0-.126-.008q0-1.806,0-3.613a11.2,11.2,0,0,0,2.961-.431C302.336,648.076,302.748,647.921,303.163,647.779Z" transform="translate(-284.631 -623.676)" fill="#039e56"/>
  <path id="Path_315" data-name="Path 315" d="M-40.267,393.082c0,.232,0,.464,0,.7-.005.132.029.188.174.188q1.613-.006,3.226,0c.131,0,.17-.051.169-.174a2.218,2.218,0,0,1,.065-.581c-.009.525-.047,1.05-.007,1.576-.087-.014-.058-.084-.059-.134,0-.147-.009-.3,0-.442.007-.132-.048-.166-.173-.166q-1.57.006-3.14,0c-.177,0-.254.076-.249.254.006.218,0,.435,0,.653A8.833,8.833,0,0,1-40.267,393.082Z" transform="translate(40.317 -379.732)" fill="#a07fa1"/>
  <path id="Path_316" data-name="Path 316" d="M487.978,160.964c.25-.312.565-.561.838-.851.183-.194.372-.381.559-.572l.083-.028c-.011.155.039.3-.236.328-.165.019-.3.3-.454.437A3.5,3.5,0,0,1,487.978,160.964Z" transform="translate(-465.675 -156.023)" fill="#239c44"/>
  <path id="Path_317" data-name="Path 317" d="M304.166,296.644q-.948-.957-1.9-1.913-1.069-1.074-2.141-2.145c-.057-.058-.139-.1-.143-.2.567-.713,1.131-1.428,1.7-2.139q2.205-2.748,4.415-5.493,1.391-1.73,2.784-3.458a1.165,1.165,0,0,1,.087-.088,10.357,10.357,0,0,1,1.077,2.258,11.4,11.4,0,0,1,.5,2.27c.046.378,0,.757.066,1.132-.044.475-.039.952-.1,1.427a10.471,10.471,0,0,1-1.2,3.656,10.634,10.634,0,0,1-4.819,4.553C304.387,296.557,304.275,296.6,304.166,296.644Z" transform="translate(-285.619 -272.582)" fill="#cbcbcb"/>
</svg>
