<svg id="Group_259" data-name="Group 259" xmlns="http://www.w3.org/2000/svg" width="51.246" height="20.363" viewBox="0 0 51.246 20.363">
  <path id="Path_741" data-name="Path 741" d="M245.336,282.22c0-2.359,0-4.717,0-7.076,0-.228.041-.315.3-.313,1.664.015,3.329-.007,4.993.017a4.611,4.611,0,0,1,4.065,2.828,4.364,4.364,0,0,1-3.131,5.8,5.76,5.76,0,0,1-1.305.132c-.909,0-1.818.009-2.726-.007-.253,0-.3.08-.3.312.009,1.787,0,3.574.011,5.36,0,.258-.071.333-.325.32a12.5,12.5,0,0,0-1.255,0c-.26.013-.323-.075-.322-.326C245.34,286.916,245.336,284.568,245.336,282.22Zm1.891-3.009c0,.592-.006,1.185,0,1.777,0,.261-.117.6.058.764s.507.054.769.05a26.524,26.524,0,0,0,2.816-.043,2.576,2.576,0,0,0,2.157-2.674,2.606,2.606,0,0,0-2.422-2.411c-1.041-.02-2.083-.006-3.125-.019-.2,0-.263.057-.26.259C247.233,277.678,247.227,278.444,247.227,279.21Z" transform="translate(-222.99 -273.663)" fill="#606469"/>
  <path id="Path_742" data-name="Path 742" d="M408.754,349.976a2.53,2.53,0,0,0-3.011-2.733,2.867,2.867,0,0,0-1.927,1.13c-.113.149-.194.162-.345.062-.418-.274-.84-.543-1.272-.795-.194-.113-.159-.2-.045-.344a4.415,4.415,0,0,1,3.228-1.716,5.548,5.548,0,0,1,3.132.5,3.661,3.661,0,0,1,2.028,3.044,24.213,24.213,0,0,1,.043,2.48c.006,1.348,0,2.7.007,4.044,0,.238-.057.322-.3.31-.428-.02-.858-.015-1.286,0-.195.006-.242-.06-.236-.245.014-.373,0-.747,0-1.163a.766.766,0,0,0-.32.322,3.978,3.978,0,0,1-6.18-.125,3.252,3.252,0,0,1,1.652-5.012A6.906,6.906,0,0,1,408.754,349.976Zm-2.278.963a3.337,3.337,0,0,0-2.036.5,1.662,1.662,0,0,0-.819,1.327,1.724,1.724,0,0,0,1.426,1.741,3.12,3.12,0,0,0,3.72-2.64.379.379,0,0,0-.212-.393A3.93,3.93,0,0,0,406.476,350.938Z" transform="translate(-369.719 -340.042)" fill="#606469"/>
  <path id="Path_743" data-name="Path 743" d="M563.57,350.915,562.3,353.83q-2.463,5.663-4.921,11.328a.383.383,0,0,1-.424.282c-.529-.02-1.06-.006-1.587-.006-.041-.142.044-.232.089-.329.691-1.5,1.381-3,2.083-4.494a.559.559,0,0,0,0-.516c-1.312-2.963-2.614-5.931-3.93-8.893-.118-.265-.053-.3.2-.29.48.014.96.018,1.44,0a.376.376,0,0,1,.422.285q1.367,3.338,2.754,6.668c.038.092.082.182.128.283a.693.693,0,0,0,.177-.33q1.344-3.314,2.678-6.633a.354.354,0,0,1,.394-.275C562.372,350.927,562.944,350.915,563.57,350.915Z" transform="translate(-512.323 -345.078)" fill="#606469"/>
  <path id="Path_744" data-name="Path 744" d="M-104.175,260.464a8.033,8.033,0,0,1,2.563-3.064,8.385,8.385,0,0,1,10.395.349c.192.166.241.254.028.457-.687.655-1.35,1.334-2.017,2.01-.116.117-.186.169-.341.031a4.88,4.88,0,0,0-7.375,1.384c-.186.317-.314.66-.468.992-.212-.172-.421-.348-.638-.515Q-103.1,261.283-104.175,260.464Z" transform="translate(105.098 -255.764)" fill="#e94436"/>
  <path id="Path_745" data-name="Path 745" d="M-91.053,425.378a7.579,7.579,0,0,1-4.327,1.966,8.456,8.456,0,0,1-6.055-1.419,8.008,8.008,0,0,1-2.754-3.178l2.792-2.148a5.2,5.2,0,0,0,1.887,2.53,5.081,5.081,0,0,0,5.591.235c.054-.028.106-.061.159-.091Z" transform="translate(105.111 -410.497)" fill="#35a854"/>
  <path id="Path_746" data-name="Path 746" d="M24.476,376.8,21.769,374.7a4.007,4.007,0,0,0,1.6-2.21c.106-.377.107-.378-.27-.378-1.3,0-2.593-.006-3.89.005-.243,0-.334-.042-.329-.311.018-.9.013-1.8,0-2.7,0-.2.057-.256.257-.256q3.737.01,7.474,0c.163,0,.269.019.292.213a9.057,9.057,0,0,1-1.579,6.822A4.75,4.75,0,0,1,24.476,376.8Z" transform="translate(-10.418 -361.924)" fill="#4285f3"/>
  <path id="Path_747" data-name="Path 747" d="M-115.516,337.859l-2.792,2.148a8.26,8.26,0,0,1-.054-7.478.413.413,0,0,1,.054-.071q1.073.822,2.146,1.644c.216.167.425.343.638.515A5.459,5.459,0,0,0-115.516,337.859Z" transform="translate(119.23 -327.757)" fill="#fabb05"/>
</svg>
