<svg xmlns="http://www.w3.org/2000/svg" width="36.461" height="28.295" viewBox="0 0 36.461 28.295">
  <g id="Group_316" data-name="Group 316" transform="translate(-75.857 -239.436)">
    <path id="Path_775" data-name="Path 775" d="M94.082,259.643a11.267,11.267,0,1,1-8.452-20.026,10.941,10.941,0,0,1,8.392,2.269c-.006.109-.1.149-.164.213a15.348,15.348,0,0,0-1.768,1.865,11.049,11.049,0,0,0-2.2,5.481,11.173,11.173,0,0,0,2.742,8.809,5.237,5.237,0,0,0,1.46,1.294Z" transform="translate(0 -0.073)" fill="#ed1716"/>
    <path id="Path_776" data-name="Path 776" d="M301.823,259.57c0-.031,0-.063,0-.094a6.362,6.362,0,0,0,1.716-1.611,11.273,11.273,0,0,0-.655-15.04c-.334-.345-.695-.665-1.043-1a11.254,11.254,0,1,1-.022,17.742Z" transform="translate(-207.741 0)" fill="#f89e01"/>
    <path id="Path_777" data-name="Path 777" d="M253.129,268.923c.348.332.709.652,1.043,1a11.273,11.273,0,0,1,.655,15.04,6.362,6.362,0,0,1-1.716,1.611,5.235,5.235,0,0,1-1.46-1.294,11.173,11.173,0,0,1-2.742-8.809,11.049,11.049,0,0,1,2.2-5.481,15.35,15.35,0,0,1,1.768-1.865c.067-.064.158-.1.164-.213Z" transform="translate(-159.026 -27.095)" fill="#f36009"/>
    <path id="Path_778" data-name="Path 778" d="M99.079,552.181c0-.39-.005-.78,0-1.169,0-.105-.072-.285.11-.29s.435-.126.537.091c.083.175.1.111.209.044a1.136,1.136,0,0,1,1.536.13c.123.114.162.1.27,0a1.254,1.254,0,0,1,1.455-.238,1.11,1.11,0,0,1,.643,1.19c-.011.511-.016,1.022,0,1.532.011.288-.165.248-.337.244s-.357.063-.345-.236c.019-.47.011-.941,0-1.411-.009-.544-.216-.792-.644-.794-.459,0-.712.286-.718.827,0,.457-.019.915.005,1.371.016.3-.17.242-.337.243s-.346.053-.344-.239a10.1,10.1,0,0,0-.031-1.61c-.066-.429-.276-.609-.667-.59a.624.624,0,0,0-.647.634c-.024.51-.027,1.022-.007,1.531.012.3-.161.273-.357.277s-.364.007-.347-.286C99.1,553.016,99.079,552.6,99.079,552.181Z" transform="translate(-21.34 -286.084)" fill="#0f1012"/>
    <path id="Path_779" data-name="Path 779" d="M470,538.241c0-.421.014-.808,0-1.193-.014-.29.171-.239.341-.242s.337-.034.334.249c-.013,1.234,0,2.469-.007,3.7,0,.1.044.248-.119.245s-.4.106-.519-.072c-.073-.11-.071-.157-.212-.084a1.425,1.425,0,0,1-1.934-.33,1.743,1.743,0,0,1,.065-2.094,1.458,1.458,0,0,1,1.961-.2A.451.451,0,0,0,470,538.241Zm-.861.33a.94.94,0,0,0,.022,1.878.941.941,0,0,0-.022-1.878Z" transform="translate(-360.107 -273.384)" fill="#0f1012"/>
    <path id="Path_780" data-name="Path 780" d="M395.729,552.426c0,.389.006.778,0,1.167,0,.1.074.284-.105.293s-.445.123-.541-.083c-.08-.171-.109-.113-.209-.058a1.426,1.426,0,0,1-1.742-.142,1.7,1.7,0,0,1-.375-1.889,1.479,1.479,0,0,1,1.482-.892,2.784,2.784,0,0,1,.706.246c.11.035.3-.212.544-.183.186.023.254.061.248.255C395.72,551.567,395.728,552,395.729,552.426Zm-.644-.008a.869.869,0,0,0-.851-.962.939.939,0,0,0-.044,1.877A.859.859,0,0,0,395.085,552.418Z" transform="translate(-291.211 -286.268)" fill="#0f1012"/>
    <path id="Path_781" data-name="Path 781" d="M168.208,552.376c0,.389.006.778,0,1.167,0,.118.079.32-.113.329s-.451.156-.562-.109c-.075-.178-.119-.067-.188-.028a1.434,1.434,0,0,1-1.746-.14,1.679,1.679,0,0,1-.391-1.85,1.468,1.468,0,0,1,1.494-.934,1.952,1.952,0,0,1,.673.234c.179.078.286-.245.548-.177.2.052.3.066.293.3C168.195,551.571,168.208,551.974,168.208,552.376Zm-1.548.947a.887.887,0,0,0,.91-.914.9.9,0,0,0-.906-.963.885.885,0,0,0-.883.939A.873.873,0,0,0,166.66,553.323Z" transform="translate(-82.028 -286.259)" fill="#0f1012"/>
    <path id="Path_782" data-name="Path 782" d="M286.884,552.572c-.282,0-.565.012-.846,0s-.246.109-.155.283a1.012,1.012,0,0,0,1.425.25c.168-.086.252-.113.383.066.186.255.14.388-.133.509a1.76,1.76,0,0,1-1.9-.108,1.556,1.556,0,0,1-.515-1.71,1.445,1.445,0,0,1,1.7-1.115,1.5,1.5,0,0,1,1.176,1.6c-.015.175-.081.23-.249.225C287.475,552.565,287.18,552.572,286.884,552.572Zm.417-.552c-.148-.513-.389-.715-.783-.688s-.614.246-.683.688Z" transform="translate(-192.345 -286.18)" fill="#0f1012"/>
    <path id="Path_783" data-name="Path 783" d="M213.027,553.861a2.16,2.16,0,0,1-1.1-.252c-.177-.088-.2-.2-.073-.343.1-.105.085-.379.361-.215a1.547,1.547,0,0,0,1.127.181c.177-.036.363-.1.362-.31,0-.2-.187-.242-.346-.274-.276-.057-.559-.085-.828-.162a.815.815,0,0,1-.68-.791.877.877,0,0,1,.631-.884,2.316,2.316,0,0,1,1.65.1c.147.06.239.154.115.3-.1.117-.067.419-.377.278a1.585,1.585,0,0,0-.939-.151c-.184.032-.359.1-.357.311s.192.242.349.268a5.145,5.145,0,0,1,.867.167.8.8,0,0,1,.62.754.867.867,0,0,1-.537.867A1.65,1.65,0,0,1,213.027,553.861Z" transform="translate(-124.957 -286.161)" fill="#0f1012"/>
    <path id="Path_784" data-name="Path 784" d="M250.184,542.748a3.753,3.753,0,0,1,0-.443c.036-.3-.045-.462-.382-.4-.223.04-.247-.106-.223-.268.02-.133-.1-.383.186-.336.491.081.436-.242.411-.528s.035-.4.36-.4c.292.007.355.1.347.372-.016.545,0,.546.547.546a2.509,2.509,0,0,0,.282,0c.266-.03.221.153.227.312.006.174.007.306-.24.31-.27,0-.633-.146-.788.088-.124.188-.031.52-.034.789,0,.067,0,.134,0,.2,0,.75.1.84.817.643.179-.05.224.021.246.146.026.148.234.324-.033.445a1.423,1.423,0,0,1-1.282.018.96.96,0,0,1-.444-.931C250.179,543.124,250.184,542.936,250.184,542.748Z" transform="translate(-159.707 -276.668)" fill="#0f1012"/>
    <path id="Path_785" data-name="Path 785" d="M357.061,553.864a1.5,1.5,0,0,1-1.552-.961,1.654,1.654,0,0,1,.4-1.813,1.8,1.8,0,0,1,1.895-.209c.135.073.369.125.194.369-.115.161-.123.422-.483.231a.936.936,0,1,0-.048,1.634c.371-.187.437.03.547.246.147.289-.145.289-.28.367A1.165,1.165,0,0,1,357.061,553.864Z" transform="translate(-256.993 -286.161)" fill="#0f1012"/>
    <path id="Path_786" data-name="Path 786" d="M329.391,552.389c0-.388-.006-.777,0-1.165,0-.108-.075-.283.079-.313.186-.036.489-.116.555.041.106.252.161.1.248.034a.771.771,0,0,1,.564-.165c.159.022.445-.081.418.2-.021.206,0,.551-.456.461s-.715.168-.731.671-.019.992,0,1.486c.011.268-.131.271-.322.262s-.381.052-.364-.262C329.408,553.22,329.391,552.8,329.391,552.389Z" transform="translate(-233.074 -286.264)" fill="#0f1012"/>
    <path id="Path_787" data-name="Path 787" d="M441.546,552.378c0-.389-.006-.779,0-1.168,0-.1-.079-.286.1-.295s.451-.125.539.083.114.1.193.033a.774.774,0,0,1,.595-.2c.161.021.448-.083.428.19-.015.207,0,.553-.454.465s-.7.156-.728.635c-.024.5-.028.994-.007,1.49.012.274-.106.308-.332.3-.2-.008-.364.011-.345-.285C441.565,553.211,441.546,552.794,441.546,552.378Z" transform="translate(-336.184 -286.276)" fill="#0f1012"/>
    <path id="Path_788" data-name="Path 788" d="M517.86,460.125c-.017.158.2.373-.133.384s-.321.018-.309-.368C517.56,460.212,517.717,460.381,517.86,460.125Z" transform="translate(-405.945 -202.89)" fill="#f89e01"/>
    <path id="Path_789" data-name="Path 789" d="M517.411,584.115c.114.047.105.2.192.283.007.006.024,0,.036,0a.09.09,0,0,0,.026-.016c-.008-.011-.014-.025-.025-.03a.041.041,0,0,0-.038,0c-.065.074-.129.149-.191.226,0,0,.018.028.02.027a.121.121,0,0,0,.044-.032c0-.006,0-.026-.012-.036-.06-.081-.293-.04-.165-.259C517.326,584.23,517.289,584.138,517.411,584.115Z" transform="translate(-405.802 -316.88)" fill="#0f1012"/>
  </g>
</svg>
