<svg id="Group_260" data-name="Group 260" xmlns="http://www.w3.org/2000/svg" width="88.008" height="22.34" viewBox="0 0 88.008 22.34">
  <path id="Path_748" data-name="Path 748" d="M-341,277.744a3.31,3.31,0,0,0,.265-1.24q1.211-7.569,2.4-15.142c.075-.473.138-.949.223-1.42a.98.98,0,0,1,1.045-.881c2.473,0,4.946-.019,7.419.009a7.8,7.8,0,0,1,3.491.738,3.91,3.91,0,0,1,2.3,3.718,3.637,3.637,0,0,1-.1,1.157,6.819,6.819,0,0,1-1.03-.355,10.948,10.948,0,0,0-2.841-.318c-1.634-.057-3.272-.026-4.908-.011-.731.007-1.093.306-1.181.885q-.168,1.111-.345,2.22c-.2,1.266-.428,2.53-.6,3.8a2.326,2.326,0,0,0-.1,1.059,3.723,3.723,0,0,0-.134.459q-.523,3.247-1.037,6.495c-1.336,0-2.672-.014-4.008,0a.977.977,0,0,1-.862-.351Z" transform="translate(341 -259.054)" fill="#013187"/>
  <path id="Path_749" data-name="Path 749" d="M871.8,346a1.412,1.412,0,0,0-.185.742q-.876,5.474-1.733,10.951c-.088.56-.3.741-.875.744q-.79,0-1.581,0c-.517,0-.647-.16-.566-.683q.412-2.628.825-5.256.54-3.424,1.082-6.849c.066-.42.179-.52.612-.523.607,0,1.214,0,1.821,0a.689.689,0,0,1,.6.259Z" transform="translate(-783.797 -339.209)" fill="#029cde"/>
  <path id="Path_750" data-name="Path 750" d="M-273.914,356.056q.517-3.248,1.037-6.495a3.733,3.733,0,0,1,.134-.459,1.079,1.079,0,0,1,.994-.49,21.873,21.873,0,0,0,4.006-.184,6.669,6.669,0,0,0,5.09-3.608,10.833,10.833,0,0,0,.927-2.933,3.307,3.307,0,0,1,1.822,2.879,7.684,7.684,0,0,1-1.453,5.178,5.88,5.88,0,0,1-4.025,2.253,13.432,13.432,0,0,1-2.121.135.857.857,0,0,0-.967.812q-.353,2.132-.682,4.268c-.144.925-.357,1.114-1.3,1.114q-1.528,0-3.056,0c-.542,0-.733-.207-.662-.741C-274.1,357.208-274,356.633-273.914,356.056Z" transform="translate(278.784 -336.193)" fill="#019cdd"/>
  <path id="Path_751" data-name="Path 751" d="M49.3,345.121a19.242,19.242,0,0,1,3.163.126,3.208,3.208,0,0,1,2.525,1.683,3.96,3.96,0,0,1,.26,2.387,5.526,5.526,0,0,1-1.553,3.361,5.117,5.117,0,0,1-3.423,1.294c-.594.029-1.191.013-1.786.017s-.819.184-.914.787q-.22,1.39-.433,2.781c-.111.721-.286.874-1.01.875-.6,0-1.191,0-1.787,0-.517,0-.642-.146-.559-.686.251-1.629.51-3.256.767-4.884q.541-3.425,1.082-6.85c.116-.738.285-.89,1.033-.89Zm-.254,6.187v.038c.33-.024.663-.031.991-.076a1.756,1.756,0,0,0,1.646-1.685c.011-.091.018-.182.027-.273a1.236,1.236,0,0,0-1.176-1.466,9.954,9.954,0,0,0-1.369-.06c-.391,0-.509.106-.569.486-.115.722-.235,1.443-.34,2.166-.042.288-.237.68-.068.838S48.754,351.308,49.049,351.308Z" transform="translate(-17.308 -339.199)" fill="#023188"/>
  <path id="Path_752" data-name="Path 752" d="M546.116,345.152a20.617,20.617,0,0,1,3.1.122,3.067,3.067,0,0,1,2.785,2.461,5.485,5.485,0,0,1-.108,2.248,4.685,4.685,0,0,1-2.718,3.562,5.9,5.9,0,0,1-2.2.462c-.6.016-1.191,0-1.786.014a.741.741,0,0,0-.846.746q-.244,1.577-.494,3.153c-.066.417-.214.541-.647.543q-1.065,0-2.13,0c-.461,0-.6-.165-.531-.614q.924-5.865,1.85-11.73c.011-.068.016-.137.025-.2a.75.75,0,0,1,.869-.761C544.178,345.148,545.072,345.152,546.116,345.152Zm-.289,6.216v.01c.32-.024.641-.033.959-.074a1.711,1.711,0,0,0,1.626-1.51,3.1,3.1,0,0,0,.063-.579,1.2,1.2,0,0,0-1.173-1.338,12.978,12.978,0,0,0-1.372-.065.494.494,0,0,0-.57.493c-.118.815-.257,1.628-.388,2.442-.1.622-.1.622.545.621Z" transform="translate(-479.914 -339.231)" fill="#029cde"/>
  <path id="Path_753" data-name="Path 753" d="M208.291,414.587a4.588,4.588,0,0,1-3.716,1.148,3.447,3.447,0,0,1-3.126-3.139,5.47,5.47,0,0,1,3.669-5.887,5.192,5.192,0,0,1,3.013-.028,2.067,2.067,0,0,1,1.273.913c.04-.025.07-.033.071-.046.133-.916.162-.855,1.014-.852.55,0,1.1,0,1.649,0,.391,0,.548.186.489.563q-.6,3.8-1.206,7.594a.711.711,0,0,1-.832.712c-.561,0-1.122,0-1.683,0-.54,0-.648-.125-.588-.662.01-.091.014-.182.021-.273l.021-.076Zm.784-3.785a1.724,1.724,0,0,0-1.558-1.854,2.592,2.592,0,0,0-2.962,2.9,1.551,1.551,0,0,0,1.068,1.352A2.585,2.585,0,0,0,209.075,410.8Z" transform="translate(-164.108 -396.336)" fill="#023188"/>
  <path id="Path_754" data-name="Path 754" d="M706.306,407.658c.218-.974.066-.945,1.153-.939.515,0,1.031,0,1.546,0,.393.005.543.18.483.563q-.6,3.814-1.2,7.628a.709.709,0,0,1-.8.677c-.584.006-1.168,0-1.752,0-.5,0-.628-.158-.553-.656.017-.109.021-.22.037-.387a5.021,5.021,0,0,1-1.547.958,4.454,4.454,0,0,1-3.094.058,3.343,3.343,0,0,1-2.245-2.874,5.389,5.389,0,0,1,4.444-6.137,5.087,5.087,0,0,1,2.31.178A2.19,2.19,0,0,1,706.306,407.658Zm-4.9,3.887a1.648,1.648,0,0,0,1.131,1.7,2.6,2.6,0,0,0,3.393-2.127,1.792,1.792,0,0,0-1.663-2.165A2.581,2.581,0,0,0,701.4,411.545Z" transform="translate(-626.82 -396.358)" fill="#029cde"/>
  <path id="Path_755" data-name="Path 755" d="M-242.664,331.429a10.834,10.834,0,0,1-.927,2.933,6.669,6.669,0,0,1-5.09,3.608,21.873,21.873,0,0,1-4.006.184,1.079,1.079,0,0,0-.994.49,2.326,2.326,0,0,1,.1-1.059c.172-1.271.4-2.534.6-3.8q.177-1.11.345-2.22c.088-.579.449-.878,1.181-.885,1.636-.015,3.274-.046,4.908.011a10.948,10.948,0,0,1,2.841.318,6.82,6.82,0,0,0,1.03.355A.409.409,0,0,1-242.664,331.429Z" transform="translate(259.722 -325.734)" fill="#012169"/>
  <path id="Path_756" data-name="Path 756" d="M386.327,414.683l2.6-3.83c.18-.265.362-.529.54-.8a.739.739,0,0,1,.673-.334c.687.007,1.374,0,2.062,0,.2,0,.4.009.5.219a.5.5,0,0,1-.114.538q-2.779,4.006-5.554,8.015c-.639.922-1.283,1.84-1.913,2.768a.9.9,0,0,1-.831.438c-.664-.016-1.329-.007-1.993,0a.472.472,0,0,1-.474-.208.462.462,0,0,1,.094-.536c.709-1,1.412-2,2.129-2.994a.545.545,0,0,0,.08-.563q-1.188-3.455-2.357-6.916c-.194-.57-.06-.756.543-.756.619,0,1.237,0,1.855,0a.724.724,0,0,1,.845.626q.617,2.053,1.233,4.107C386.263,414.512,386.284,414.563,386.327,414.683Z" transform="translate(-332 -399.364)" fill="#023188"/>
</svg>
