<svg xmlns="http://www.w3.org/2000/svg" width="268.438" height="66" viewBox="0 0 268.438 66">
  <g id="Group_371" data-name="Group 371" transform="translate(-204.641 -290.217)">
    <path id="Path_819" data-name="Path 819" d="M237.045,338.408q0,10.806.01,21.611c0,.408-.095.516-.507.51q-2.632-.038-5.265,0c-.4.006-.479-.115-.479-.492.01-12.214.045-24.428-.007-36.641a15.158,15.158,0,0,0-7.93-13.715,14.707,14.707,0,0,0-7.587-1.994q-4.437-.011-8.874.007c-.375,0-.467-.091-.466-.466q.022-5.774,0-11.549c0-.385.109-.464.474-.462,3.3.014,6.595-.019,9.893.015a20.211,20.211,0,0,1,12.966,4.39,19.778,19.778,0,0,1,6.372,9.968,33.849,33.849,0,0,1,1.38,9.756c.02,6.355.006,12.709.006,19.063Z" transform="translate(-1.298 -4.845)" fill="#014d7a"/>
    <path id="Path_820" data-name="Path 820" d="M302.538,338.371q0-8.767,0-17.535a39.016,39.016,0,0,1,1.226-10.631,20.326,20.326,0,0,1,6.191-10.28,19.494,19.494,0,0,1,10.2-4.468,25.8,25.8,0,0,1,3.724-.226c3.114,0,6.227,0,9.341-.007.324,0,.432.07.431.418q-.02,5.817,0,11.634c0,.335-.086.424-.422.423-2.93-.013-5.859-.008-8.789-.008a15.521,15.521,0,0,0-15.354,12.506,16.131,16.131,0,0,0-.307,3.29q0,18.257.011,36.514c0,.416-.08.544-.523.537-1.754-.03-3.51-.024-5.264,0-.376,0-.464-.093-.464-.466Q302.547,349.219,302.538,338.371Z" transform="translate(-63.71 -4.849)" fill="#014d7a"/>
    <path id="Path_821" data-name="Path 821" d="M328.866,369.484q0-8.9,0-17.791a12.434,12.434,0,0,1,9.881-12.273,11.876,11.876,0,0,1,2.485-.267c3-.005,6,0,9-.01.344,0,.42.1.418.427q-.019,3.949,0,7.9c0,.334-.085.426-.421.423-2-.016-3.991-.008-5.987-.008a10.855,10.855,0,0,0-11,11.018q0,14.734,0,29.467c0,.61.073.53-.548.533-1.132,0-2.265-.013-3.4.01-.356.007-.442-.1-.442-.447Q328.875,378.974,328.866,369.484Z" transform="translate(-80.723 -33.228)" fill="#024e7b"/>
    <path id="Path_822" data-name="Path 822" d="M227.733,369.528q0,9.448.009,18.9c0,.387-.094.5-.487.489-1.16-.028-2.321-.021-3.481,0-.324.005-.432-.069-.429-.415.018-1.9.008-3.793.008-5.69q0-10.828,0-21.655a25.668,25.668,0,0,0-.162-4.319,10.844,10.844,0,0,0-9.693-8.886c-2.329-.173-4.669-.031-7-.061-.613-.008-.538.076-.538-.544,0-2.59,0-5.18-.008-7.77,0-.331.079-.427.42-.426,3,.014,6,0,9,.011a12.446,12.446,0,0,1,12.365,12.583Q227.744,360.633,227.733,369.528Z" transform="translate(-1.302 -33.228)" fill="#024e7b"/>
    <path id="Path_823" data-name="Path 823" d="M488.956,306.564c3.621,1.242,4.535,2.559,4.561,6.293a43.28,43.28,0,0,0,.53,7.556,2.332,2.332,0,0,0,.565-1.282c2.425-8.734,4.863-17.465,7.245-26.211.262-.964.649-1.289,1.647-1.245,1.965.085,3.937.051,5.905.011a.976.976,0,0,1,1.14.877q3.7,13.751,7.456,27.484c.168.616.214.942-.6.919q-2.438-.07-4.878,0c-.678.021-.874-.3-1.006-.867-.368-1.582-.805-3.149-1.155-4.735a.944.944,0,0,0-1.127-.871c-2.182.043-4.366.037-6.548,0a.875.875,0,0,0-1.036.818c-.347,1.543-.812,3.059-1.16,4.6-.164.725-.4,1.073-1.252,1.059q-5.07-.086-10.142,0a1.114,1.114,0,0,1-1.3-1.035,11.83,11.83,0,0,1-.264-2.545c-.021-1.625.047-3.259-.1-4.873-.233-2.628-1.367-3.616-4-3.632-2.154-.013-1.775-.208-1.79,1.73-.023,3.039-.038,6.078.013,9.116.016.909-.151,1.314-1.176,1.242-1.363-.1-2.738-.051-4.107-.012-.633.018-.9-.121-.9-.835q.034-13.8,0-27.606c0-.721.3-.837.922-.833,3.552.022,7.105-.032,10.657.025a6.161,6.161,0,0,1,6.305,5.146,11.178,11.178,0,0,1,.047,4.842C492.914,304.1,491.982,305.095,488.956,306.564Zm-5.587-10.28c-.455.321-1.677-.723-1.718.747-.061,2.179-.019,4.362-.011,6.543,0,.278-.087.706.348.694,1.42-.038,2.941.453,4.182-.656,1.16-1.037,1.6-3.764.918-5.562C486.445,296.352,485.034,296.179,483.369,296.284Zm22.637,1.612-.245-.044q-1.26,5.727-2.523,11.453c-.13.584.2.632.635.629,1.282-.007,2.566-.051,3.844.015.9.047,1.089-.23.879-1.088C507.7,305.213,506.865,301.552,506.006,297.9Z" transform="translate(-178.399 -0.964)" fill="#04507c"/>
    <path id="Path_824" data-name="Path 824" d="M577.567,405.346q-1.936,7.761-3.873,15.522c-.414,1.659-.87,3.309-1.231,4.979-.146.675-.415.917-1.108.889a34.7,34.7,0,0,0-3.848.008c-.912.064-1.245-.256-1.446-1.128-1.449-6.289-2.951-12.566-4.437-18.847a2.471,2.471,0,0,0-.588-1.252v5.367c0,4.92-.016,9.84.015,14.759.005.806-.169,1.148-1.057,1.1-1.365-.078-2.737-.044-4.105-.01-.628.016-.913-.127-.911-.84q.031-13.8,0-27.593c0-.714.288-.848.915-.842,2.609.025,5.22.054,7.828-.013.9-.023,1.244.246,1.441,1.131,1.261,5.675,2.584,11.336,3.888,17,.1.414.2.825.4,1.635.349-1.342.618-2.32.858-3.3,1.236-5.066,2.486-10.128,3.677-15.2.222-.946.583-1.3,1.608-1.264,2.435.091,4.876.061,7.314.012.8-.016,1.005.247,1,1.023q-.037,13.6,0,27.208c0,.86-.26,1.1-1.092,1.06a35.324,35.324,0,0,0-3.848,0c-.9.051-1.152-.237-1.146-1.139.039-6.289.021-12.577.021-18.866q0-.7,0-1.4Z" transform="translate(-231.089 -71.057)" fill="#05517d"/>
    <path id="Path_825" data-name="Path 825" d="M610.793,300.187c0,6.623-.025,13.083.026,19.542.008,1.034-.293,1.316-1.282,1.246a35.565,35.565,0,0,0-3.592-.009c-.628.019-.906-.119-.9-.836q.033-13.8,0-27.6c0-.72.293-.847.918-.838,2.1.028,4.195.066,6.288-.015.911-.035,1.255.326,1.551,1.112,2.19,5.8,4.423,11.581,6.646,17.367a2.357,2.357,0,0,0,.728,1.089v-1.064c0-5.776.016-11.552-.018-17.328-.005-.863.186-1.229,1.122-1.17,1.236.078,2.481.048,3.721.007.654-.022.9.168.895.861q-.029,13.8,0,27.6c0,.6-.171.825-.795.816-2.181-.03-4.365-.054-6.545.009-.858.025-.937-.532-1.143-1.085q-3.448-9.253-6.911-18.5C611.356,301.017,611.352,300.556,610.793,300.187Z" transform="translate(-264.268 -0.969)" fill="#024e7b"/>
    <path id="Path_826" data-name="Path 826" d="M955.726,306.593c3.637,1.232,4.538,2.522,4.567,6.281a43.7,43.7,0,0,0,.475,7.16c.12.69.067,1-.753.966-1.409-.061-2.824-.053-4.234,0a.988.988,0,0,1-1.162-.872,12.758,12.758,0,0,1-.326-3.052c-.015-1.582.061-3.173-.082-4.744-.21-2.314-1.375-3.314-3.7-3.416-2.092-.092-2.092-.092-2.092,1.949,0,3.037-.024,6.075.017,9.112.01.772-.18,1.062-.994,1.025-1.409-.063-2.824-.046-4.234-.005-.674.019-.981-.107-.978-.893q.039-13.733,0-27.465c0-.76.274-.925.971-.92,3.55.029,7.1-.033,10.651.029a6.118,6.118,0,0,1,6.259,5.033,10.952,10.952,0,0,1,.012,5.212C959.594,304.238,958.679,305.182,955.726,306.593Zm-7.307-6.281v1.8c0,2.264,0,2.264,2.32,2.232a2.871,2.871,0,0,0,3.172-2.383,6.451,6.451,0,0,0,.05-3.546c-.5-1.858-1.966-2.577-4.867-2.066-1.4.246-.44,1.606-.652,2.433A6.367,6.367,0,0,0,948.419,300.311Z" transform="translate(-487.738 -0.995)" fill="#04507c"/>
    <path id="Path_827" data-name="Path 827" d="M876.639,305.393a38.86,38.86,0,0,1,.584-8.3c.926-4,3.27-6.09,7.339-6.594a17.777,17.777,0,0,1,4.477.015c3.949.507,6.467,2.663,7.18,6.593a48.056,48.056,0,0,1,.1,16.093c-.741,4.717-3.323,6.891-8.058,7.322a16.06,16.06,0,0,1-4.727-.245,7.674,7.674,0,0,1-6.26-6.2A37.905,37.905,0,0,1,876.639,305.393Zm6.33.033c0,1.5-.047,2.993.013,4.486a12.792,12.792,0,0,0,.676,4.029,3.243,3.243,0,0,0,6.164-.036,11.393,11.393,0,0,0,.562-2.755,72.087,72.087,0,0,0,.157-9.1,15.661,15.661,0,0,0-.727-5.056,2.984,2.984,0,0,0-3.232-2.181c-1.676.05-2.658.9-3.134,2.832A29.23,29.23,0,0,0,882.969,305.426Z" transform="translate(-444.267 -0.097)" fill="#04507c"/>
    <path id="Path_828" data-name="Path 828" d="M647.171,408.663c0-3.379.025-6.758-.017-10.136-.01-.838.225-1.124,1.082-1.078a35.55,35.55,0,0,0,3.975,0c.917-.054,1.135.266,1.129,1.148-.036,6.2-.014,12.4-.024,18.605a11.581,11.581,0,0,0,.26,2.675,3.636,3.636,0,0,0,7.117.035,9.322,9.322,0,0,0,.232-2.289c-.008-6.287.023-12.574-.031-18.861-.009-1.091.316-1.387,1.363-1.314a38.516,38.516,0,0,0,3.976.009c.684-.023.874.227.872.888-.02,6.8.071,13.6-.045,20.4-.077,4.535-2.958,7.568-7.443,8.27a14.71,14.71,0,0,1-6.6-.363,8.531,8.531,0,0,1-5.8-7.724q-.012-5.132,0-10.264Z" transform="translate(-292.178 -71.058)" fill="#04507c"/>
    <path id="Path_829" data-name="Path 829" d="M715.008,416.682c.086,0,.171,0,.257,0,.852.024,1.865-.227,2.51.15.665.389.2,1.495.364,2.273.258,1.254.766,2.287,2.151,2.575,1.31.273,2.62.295,3.519-.887a3.333,3.333,0,0,0,.3-3.748,6.954,6.954,0,0,0-2.685-2.515c-1.874-1.195-3.88-2.175-5.649-3.54a8.421,8.421,0,0,1-3.341-8.947,6.561,6.561,0,0,1,4.657-5.306,14.831,14.831,0,0,1,8.228-.3c4.38,1.069,5.189,4.588,5.116,7.819-.011.5-.265.655-.73.651-1.54-.013-3.081-.024-4.621.005-.583.011-.748-.253-.737-.77a5.492,5.492,0,0,0-.065-.9c-.174-1.2-.54-2.322-1.866-2.643a2.983,2.983,0,0,0-3.281.883,3.211,3.211,0,0,0-.307,3.511,5.836,5.836,0,0,0,2.55,2.455c1.724,1.031,3.511,1.961,5.2,3.041a8.56,8.56,0,0,1,4.058,9.141,6.742,6.742,0,0,1-5.168,6.035,15.912,15.912,0,0,1-8.87.035,7.442,7.442,0,0,1-4.76-8.533c.116-.478.376-.489.73-.489Q713.788,416.685,715.008,416.682Z" transform="translate(-334.929 -70.104)" fill="#04507c"/>
    <path id="Path_830" data-name="Path 830" d="M677.789,310.958c.043,0,.086,0,.128,0,.895.022,1.956-.245,2.637.147.705.405.235,1.572.411,2.391a2.775,2.775,0,0,0,2.247,2.479,3.2,3.2,0,0,0,3.481-1.007,3.6,3.6,0,0,0,.1-3.88,8.729,8.729,0,0,0-3-2.561,55.113,55.113,0,0,1-5.312-3.345,8.382,8.382,0,0,1-3.428-7.718,6.922,6.922,0,0,1,5.3-6.617,15.491,15.491,0,0,1,7.488-.214c4.575.983,5.466,4.563,5.393,7.855-.011.5-.245.663-.715.659-1.539-.012-3.079-.02-4.618,0-.557.009-.779-.209-.749-.752a3.782,3.782,0,0,0-.049-.767c-.187-1.226-.514-2.375-1.891-2.781a3.242,3.242,0,0,0-3.377.993,3.446,3.446,0,0,0,.032,3.865,7.825,7.825,0,0,0,2.631,2.209c1.588.923,3.239,1.751,4.767,2.765,3.745,2.485,4.991,5.7,4,10.079-.709,3.121-2.823,4.786-5.84,5.395a17.961,17.961,0,0,1-6.885.108c-5.038-.939-6.036-4.776-5.924-8.664.015-.5.265-.659.734-.648C676.164,310.972,676.976,310.958,677.789,310.958Z" transform="translate(-310.374 -0.038)" fill="#04507c"/>
    <path id="Path_831" data-name="Path 831" d="M764.027,310.92c.043,0,.086,0,.128,0,.9.017,1.958-.257,2.646.131.711.4.234,1.572.424,2.394a2.8,2.8,0,0,0,2.239,2.49c1.327.254,2.621.213,3.475-1.006a3.378,3.378,0,0,0,.17-3.762,7.512,7.512,0,0,0-2.839-2.54c-1.736-1.093-3.578-2.014-5.229-3.249a8.455,8.455,0,0,1-3.685-8.219,6.815,6.815,0,0,1,5.041-6.27,14.746,14.746,0,0,1,8.234-.164,6.887,6.887,0,0,1,4.868,7.763c-.09.489-.307.628-.765.623-1.5-.017-3-.03-4.493.006-.624.015-.838-.223-.813-.82a4.985,4.985,0,0,0-.12-1.015c-.2-1.158-.615-2.2-1.9-2.471a3.036,3.036,0,0,0-3.183.856,3.178,3.178,0,0,0-.417,3.389,5.762,5.762,0,0,0,2.688,2.659c1.723,1.033,3.514,1.958,5.2,3.05a8.081,8.081,0,0,1,4.037,6.1c.55,5.58-2.011,8.809-7.023,9.426a18.916,18.916,0,0,1-6.131-.1,7.4,7.4,0,0,1-5.693-8.736c.1-.458.327-.534.7-.531C762.4,310.924,763.214,310.92,764.027,310.92Z" transform="translate(-367.446)" fill="#04507c"/>
    <path id="Path_832" data-name="Path 832" d="M805.506,411.309a28.105,28.105,0,0,0,.267,7.158c.309,1.554.806,3.013,2.673,3.362a2.366,2.366,0,0,0,3.013-1.693,9.317,9.317,0,0,0,.45-3.288c-.006-.643.146-.928.85-.907,1.5.044,2.995.034,4.491,0,.631-.012.824.249.785.841a16.891,16.891,0,0,1-.894,5.029,6.438,6.438,0,0,1-4.815,4.192,14.608,14.608,0,0,1-6.74-.073c-3.5-.841-5.38-3.242-5.958-6.631a50.814,50.814,0,0,1-.128-15.464c.744-5.451,4.007-8.136,10.859-7.662,5.81.4,7.3,4.167,7.382,8.933.011.621-.239.816-.836.8-1.5-.029-2.995-.032-4.491,0-.634.014-.783-.246-.79-.834a12.989,12.989,0,0,0-.228-2.291c-.2-1.042-.569-1.995-1.828-2.184a2.933,2.933,0,0,0-3.149,1.481,8.233,8.233,0,0,0-.894,3.711C805.452,407.633,805.506,409.472,805.506,411.309Z" transform="translate(-392.794 -70.189)" fill="#04507c"/>
    <path id="Path_833" data-name="Path 833" d="M425.6,308.878c0,3.677-.022,7.354.017,11.031.009.817-.185,1.136-1.06,1.087a32.842,32.842,0,0,0-4.1,0c-1.042.073-1.044-.456-1.042-1.225.019-7.183-.028-14.367.047-21.549.014-1.34-.366-1.7-1.643-1.6-1.445.114-2.906,0-4.359.038-.677.018-.894-.227-.866-.891.046-1.067.048-2.139,0-3.206-.032-.7.26-.86.9-.858q8.979.027,17.958-.006c.775,0,.941.288.906.976-.064,1.277.4,2.912-.228,3.733-.6.782-2.326.214-3.555.229-2.974.034-2.974.011-2.974,3Q425.6,304.26,425.6,308.878Z" transform="translate(-136.72 -0.989)" fill="#04507c"/>
    <path id="Path_834" data-name="Path 834" d="M831.124,308.743c0,3.676-.029,7.353.02,11.028.012.909-.147,1.31-1.169,1.231a25.52,25.52,0,0,0-3.844,0c-1,.074-1.191-.3-1.187-1.224.038-7.224-.007-14.449.049-21.672.009-1.164-.276-1.562-1.465-1.473-1.445.108-2.906,0-4.358.037-.67.017-1.031-.107-.983-.9a30.43,30.43,0,0,0,0-3.2c-.032-.705.266-.853.906-.851q8.977.028,17.953,0c.782,0,.932.315.9.991a28.48,28.48,0,0,0,0,2.948c.048.78-.2,1.053-1,1.024-1.537-.055-3.08.037-4.615-.035-.941-.044-1.255.219-1.24,1.2C831.159,301.475,831.124,305.109,831.124,308.743Z" transform="translate(-405.526 -0.99)" fill="#04507c"/>
    <path id="Path_835" data-name="Path 835" d="M743.094,306.417c0,4.493-.02,8.987.018,13.48.007.83-.211,1.118-1.064,1.077-1.409-.068-2.824-.042-4.235-.007-.63.015-.908-.13-.907-.842q.032-13.8,0-27.6c0-.733.323-.841.932-.828,1.326.029,2.657.068,3.978-.01.98-.058,1.319.2,1.3,1.253C743.058,297.429,743.094,301.923,743.094,306.417Z" transform="translate(-351.66 -0.968)" fill="#04507c"/>
    <path id="Path_836" data-name="Path 836" d="M780.483,412.219c0,4.491-.022,8.982.019,13.473.008.849-.239,1.1-1.074,1.06-1.409-.065-2.823-.048-4.233-.005-.679.021-.874-.22-.872-.884q.026-13.73,0-27.46c0-.737.234-.964.957-.937,1.367.049,2.74.073,4.1-.006.93-.054,1.129.287,1.121,1.157C780.461,403.152,780.483,407.686,780.483,412.219Z" transform="translate(-376.456 -71.072)" fill="#04507c"/>
  </g>
</svg>
