<svg id="Group_261" data-name="Group 261" xmlns="http://www.w3.org/2000/svg" width="53.445" height="17.328" viewBox="0 0 53.445 17.328">
  <path id="Path_757" data-name="Path 757" d="M582.9,238.66v.125c-.076,0-.152-.013-.228-.013-1.19,0-2.38,0-3.569,0-.165,0-.224-.046-.255-.208-.137-.716-.292-1.429-.432-2.144-.026-.133-.077-.176-.217-.176q-2.6.008-5.2,0a.222.222,0,0,0-.25.18c-.253.72-.521,1.435-.773,2.156a.232.232,0,0,1-.261.192c-1.385-.007-2.769,0-4.154-.005-.058,0-.123.025-.181-.03.025-.065.048-.13.074-.193l4.7-11.216q.84-2.007,1.683-4.013a1.955,1.955,0,0,1,1.384-1.218,3.325,3.325,0,0,1,.786-.092c1.078,0,2.157,0,3.235-.005.128,0,.176.033.2.166q.54,2.633,1.095,5.262,1.013,4.854,2.027,9.707C582.669,237.648,582.748,238.162,582.9,238.66Zm-6.526-12.076a.6.6,0,0,0-.056.082q-1.1,3-2.194,6c-.064.173.014.164.134.164,1.071,0,2.142,0,3.212,0,.15,0,.192-.034.16-.187C577.207,230.633,576.792,228.621,576.371,226.584Z" transform="translate(-529.451 -221.708)" fill="#01579f"/>
  <path id="Path_758" data-name="Path 758" d="M288.957,214.89a4.536,4.536,0,0,0,.81.122,11.334,11.334,0,0,1,2.074.534.16.16,0,0,1,.123.214q-.275,1.666-.542,3.333c-.029.182-.121.083-.189.052a7.463,7.463,0,0,0-2.306-.684,5.541,5.541,0,0,0-2.616.188,1.759,1.759,0,0,0-.736.5,1,1,0,0,0,.011,1.414,3.576,3.576,0,0,0,1,.745c.64.349,1.294.672,1.931,1.026a6.769,6.769,0,0,1,1.847,1.446,4.036,4.036,0,0,1,.955,3.378,5.418,5.418,0,0,1-3.9,4.477,10.392,10.392,0,0,1-3.71.567c-.087,0-.179-.038-.262.022h-.209a2.5,2.5,0,0,0-.667-.082,13.127,13.127,0,0,1-3.368-.738.229.229,0,0,1-.173-.306c.184-1.1.36-2.208.537-3.312.038-.235.035-.236.259-.131a9.7,9.7,0,0,0,2.873.956,6.677,6.677,0,0,0,2.712-.062,2.349,2.349,0,0,0,1.017-.549,1.239,1.239,0,0,0,.085-1.762,4.437,4.437,0,0,0-1.333-.952,21.24,21.24,0,0,1-2.113-1.17,5.872,5.872,0,0,1-1.62-1.546,4.059,4.059,0,0,1-.309-3.889,5.348,5.348,0,0,1,2.838-2.915,8.867,8.867,0,0,1,3.144-.829c.044,0,.1.02.127-.042Z" transform="translate(-253.132 -214.89)" fill="#01579f"/>
  <path id="Path_759" data-name="Path 759" d="M-341,222.208c.027-.235.181-.248.378-.248q3.246.009,6.493,0a3.585,3.585,0,0,1,.725.069,1.649,1.649,0,0,1,1.418,1.416q.709,3.6,1.415,7.2a1.481,1.481,0,0,1,.012.206.231.231,0,0,1-.037-.049,13.346,13.346,0,0,0-5.563-6.48.472.472,0,0,0-.283-.117c-.006-.078-.074-.094-.126-.124a17.535,17.535,0,0,0-4.309-1.742.6.6,0,0,0-.123-.007Z" transform="translate(341 -221.665)" fill="#f9a61c"/>
  <path id="Path_760" data-name="Path 760" d="M-231.833,224.228a.473.473,0,0,1,.283.117,13.346,13.346,0,0,1,5.563,6.48.232.232,0,0,0,.037.049v0a.117.117,0,0,0,.034.1q.233,1.132.467,2.265c.006.031,0,.071.059.1.064-.165.128-.328.189-.493q1.982-5.338,3.962-10.677c.037-.1.056-.184.2-.183,1.468.006,2.936,0,4.4,0,.032.072-.014.124-.036.177q-3.331,8.2-6.661,16.4a.221.221,0,0,1-.24.167q-2.119-.009-4.238,0a.191.191,0,0,1-.223-.172q-1.86-7.038-3.726-14.074C-231.78,224.4-231.808,224.313-231.833,224.228Z" transform="translate(236.391 -221.687)" fill="#01579f"/>
  <path id="Path_761" data-name="Path 761" d="M112.554,238.75c-.661,0-1.322,0-1.982,0-.142,0-.168-.03-.145-.175q.853-5.245,1.695-10.491.478-2.962.955-5.925c.022-.137.071-.18.212-.179q1.982.008,3.965,0c.161,0,.183.055.16.193q-.409,2.5-.812,5-.448,2.767-.895,5.533-.45,2.787-.9,5.575c-.077.47-.085.469-.561.469Z" transform="translate(-91.57 -221.686)" fill="#01579f"/>
  <path id="Path_762" data-name="Path 762" d="M-90.961,434.933a.117.117,0,0,1-.034-.1C-90.944,434.851-90.962,434.9-90.961,434.933Z" transform="translate(101.434 -425.646)" fill="#f9a61c"/>
</svg>
