<svg xmlns="http://www.w3.org/2000/svg" width="26.729" height="37.221" viewBox="0 0 26.729 37.221">
  <g id="Group_190" data-name="Group 190" transform="translate(-203.1 -372.561)">
    <path id="Path_286" data-name="Path 286" d="M209.542,377.62a.936.936,0,0,1,.07.135c.082,1.259.082,1.258-1.083,1.774-.408.181-.813.367-1.343.606.675.243,1.237.448,1.8.648s1.157.4,1.821.634c0-.46,0-.866,0-1.272.01-.849-.04-1.7.047-2.544a3.3,3.3,0,0,1,4.225-3.061,7.759,7.759,0,0,1,5.831,7.074c.009.982.013,1.965,0,2.947a.492.492,0,0,0,.408.566c.746.23,1.477.51,2.218.761.135.045.322.11.423.053.954-.532,1.895-1.089,2.936-1.7-1.247-.441-2.383-.848-3.523-1.245-1.264-.44-1.265-.436-1.265-1.793,0-.583-.03-1.168.005-1.748.162-2.686-2.467-5.355-4.745-5.326a1.086,1.086,0,0,1-.381-.1c-.7-.268-1.39-.542-2.122-.829a2.691,2.691,0,0,1,1.53-.612,5.322,5.322,0,0,1,3.834,1.144,7.539,7.539,0,0,1,3.386,6.493c-.015.576-.161,1.29.116,1.691.263.381,1,.44,1.53.63.736.264,1.47.532,2.214.771a.551.551,0,0,1,.436.56q.575,6.014,1.178,12.025c.241,2.451.476,4.9.736,7.353a.666.666,0,0,1-.3.705q-3.766,2.8-7.51,5.635a.644.644,0,0,1-.793.083q-8.809-4.422-17.639-8.805a.73.73,0,0,1-.463-.885q.761-6.922,1.493-13.848.341-3.177.692-6.353a.5.5,0,0,1,.194-.358C206.834,378.819,208.185,378.223,209.542,377.62Zm12.336,30.572c.232-.152.384-.246.53-.35,1.887-1.337,3.756-2.7,5.67-4a1.208,1.208,0,0,0,.585-1.306c-.514-5.114-1-10.23-1.5-15.345-.055-.568-.12-1.135-.187-1.777-1.031.627-1.986,1.2-2.922,1.795a.689.689,0,0,0-.212.462c-.1.876-.177,1.754-.26,2.631q-.527,5.513-1.053,11.026C222.316,403.584,222.1,405.835,221.878,408.192Zm-2.471-23.749c0-1.279.051-2.46-.011-3.634a5.438,5.438,0,0,0-3.822-4.641,2.4,2.4,0,0,0-3.264,2.437c-.015.964.012,1.929-.011,2.893a.524.524,0,0,0,.424.6c1.51.51,3.009,1.052,4.512,1.581C217.936,383.93,218.638,384.174,219.407,384.443Z" transform="translate(0)" fill="#004d7a"/>
    <path id="Path_287" data-name="Path 287" d="M233.058,388.164c-1.628-.575-3.21-1.132-4.788-1.7a.427.427,0,0,1-.243-.237,1.777,1.777,0,0,1,1.605-2.205c0,.428.023.852-.007,1.272a.518.518,0,0,0,.426.616c.749.239,1.487.513,2.23.773C233.163,386.994,233.224,387.1,233.058,388.164Z" transform="translate(-14.687 -6.317)" fill="#004d7a"/>
  </g>
</svg>
