<svg xmlns="http://www.w3.org/2000/svg" width="32.604" height="27.916" viewBox="0 0 32.604 27.916">
  <path id="Path_268" data-name="Path 268" d="M30.293,2.253A8.757,8.757,0,0,0,23.906,0,7.268,7.268,0,0,0,21.6.39a9.317,9.317,0,0,0-2.183,1.054q-1.01.663-1.738,1.245A16.764,16.764,0,0,0,16.3,3.925a16.8,16.8,0,0,0-1.383-1.236q-.728-.582-1.738-1.245A9.322,9.322,0,0,0,11,.39,7.268,7.268,0,0,0,8.7,0,8.758,8.758,0,0,0,2.311,2.253,8.33,8.33,0,0,0,0,8.5a7.953,7.953,0,0,0,.428,2.508,11,11,0,0,0,.973,2.2,16.079,16.079,0,0,0,1.237,1.772q.691.863,1.01,1.19a6.025,6.025,0,0,0,.5.473L15.5,27.586a1.143,1.143,0,0,0,1.6,0l11.335-10.9Q32.6,12.521,32.6,8.5A8.328,8.328,0,0,0,30.293,2.253ZM26.854,14.974,16.3,25.132,5.731,14.955q-3.4-3.4-3.4-6.451a7.917,7.917,0,0,1,.391-2.6,5.074,5.074,0,0,1,1-1.79A4.807,4.807,0,0,1,5.2,3.034a6.575,6.575,0,0,1,1.71-.563A10.415,10.415,0,0,1,8.7,2.325a5.24,5.24,0,0,1,2.038.463,9.311,9.311,0,0,1,2.01,1.163q.919.7,1.574,1.308A14.162,14.162,0,0,1,15.41,6.378a1.193,1.193,0,0,0,1.783,0A14.13,14.13,0,0,1,18.285,5.26q.655-.609,1.574-1.308a9.3,9.3,0,0,1,2.011-1.163,5.24,5.24,0,0,1,2.038-.463,10.416,10.416,0,0,1,1.783.145,6.57,6.57,0,0,1,1.71.563,4.811,4.811,0,0,1,1.483,1.081,5.074,5.074,0,0,1,1,1.79,7.923,7.923,0,0,1,.391,2.6Q30.274,11.557,26.854,14.974Z" transform="translate(0 0.002)" fill="#004d7a" fill-rule="evenodd"/>
</svg>
