<svg xmlns="http://www.w3.org/2000/svg" width="42.285" height="42.283" viewBox="0 0 42.285 42.283">
  <g id="Group_413" data-name="Group 413" transform="translate(-1197.779 -6586.607)">
    <ellipse id="Ellipse_69" data-name="Ellipse 69" cx="21.142" cy="21.142" rx="21.142" ry="21.142" transform="translate(1197.779 6586.607)" fill="#004d7a"/>
    <path id="Path_216" data-name="Path 216" d="M18.4,1.766a7.542,7.542,0,0,1-2.172.583A3.656,3.656,0,0,0,17.887.275a7.416,7.416,0,0,1-2.394.908A3.789,3.789,0,0,0,10.068,1.1a3.621,3.621,0,0,0-1.1,2.662,4.163,4.163,0,0,0,.094.862A10.536,10.536,0,0,1,4.718,3.46,10.69,10.69,0,0,1,1.279.682a3.678,3.678,0,0,0-.514,1.9A3.656,3.656,0,0,0,1.22,4.375a3.762,3.762,0,0,0,1.226,1.34A3.75,3.75,0,0,1,.741,5.236v.047A3.63,3.63,0,0,0,1.6,7.677a3.712,3.712,0,0,0,2.167,1.3,3.913,3.913,0,0,1-.993.128,4.812,4.812,0,0,1-.712-.058,3.78,3.78,0,0,0,3.527,2.609A7.4,7.4,0,0,1,.905,13.262a8.088,8.088,0,0,1-.911-.046A10.5,10.5,0,0,0,5.787,14.9a11.054,11.054,0,0,0,3.772-.635,9.6,9.6,0,0,0,3.013-1.7,11.384,11.384,0,0,0,2.155-2.452,10.917,10.917,0,0,0,1.349-2.894A10.662,10.662,0,0,0,16.521,4.2q0-.326-.012-.489A7.886,7.886,0,0,0,18.4,1.766Z" transform="translate(1210.119 6599.875)" fill="#fff" fill-rule="evenodd"/>
  </g>
</svg>
