<svg xmlns="http://www.w3.org/2000/svg" width="42.285" height="42.283" viewBox="0 0 42.285 42.283">
  <g id="Group_406" data-name="Group 406" transform="translate(-633.273 -950.215)">
    <ellipse id="Ellipse_117" data-name="Ellipse 117" cx="21.142" cy="21.142" rx="21.142" ry="21.142" transform="translate(633.273 950.215)" fill="#eee"/>
    <path id="Path_1074" data-name="Path 1074" d="M5.87,6.139V4.524A3.515,3.515,0,0,1,5.9,3.961a1.09,1.09,0,0,1,.155-.393.633.633,0,0,1,.39-.267,2.8,2.8,0,0,1,.717-.074H8.794V0h-2.6A4.259,4.259,0,0,0,2.945,1.06a4.456,4.456,0,0,0-.986,3.134V6.139H.008V9.37h1.95v9.374H5.87V9.37h2.6l.344-3.231Z" transform="translate(650.004 961.924)" fill="#004d7a" fill-rule="evenodd"/>
  </g>
</svg>
