<svg xmlns="http://www.w3.org/2000/svg" width="42.285" height="42.283" viewBox="0 0 42.285 42.283">
  <g id="Group_408" data-name="Group 408" transform="translate(-756.248 -949.607)">
    <ellipse id="Ellipse_115" data-name="Ellipse 115" cx="21.142" cy="21.142" rx="21.142" ry="21.142" transform="translate(756.248 949.607)" fill="#eee"/>
    <path id="Path_1075" data-name="Path 1075" d="M11.533,16.279c-2.565-.032-5.187-.038-7.8-.3a7.794,7.794,0,0,1-.992-.146A2.884,2.884,0,0,1,.449,13.545a16.294,16.294,0,0,1-.358-2.9,33.328,33.328,0,0,1,.3-7.577A2.983,2.983,0,0,1,3.236.393,77.12,77.12,0,0,1,12.253.047c2.147,0,4.294.051,6.436.215.516.039,1.031.091,1.542.182a2.923,2.923,0,0,1,2.485,2.4,26.5,26.5,0,0,1,.413,5.4,25.97,25.97,0,0,1-.411,5.2,2.913,2.913,0,0,1-2.505,2.421,26.432,26.432,0,0,1-3.318.29C15.128,16.247,13.358,16.263,11.533,16.279Zm3.712-8.136L9.284,4.7V11.59Z" transform="translate(765.932 962.393)" fill="#004d7a" fill-rule="evenodd"/>
  </g>
</svg>
