<svg xmlns="http://www.w3.org/2000/svg" width="42.285" height="42.283" viewBox="0 0 42.285 42.283">
  <g id="Group_411" data-name="Group 411" transform="translate(-1300.715 -6586.607)">
    <ellipse id="Ellipse_113" data-name="Ellipse 113" cx="21.142" cy="21.142" rx="21.142" ry="21.142" transform="translate(1300.715 6586.607)" fill="#004d7a"/>
    <path id="Path_813" data-name="Path 813" d="M23.041,15.405a10.917,10.917,0,0,1-.446,3.508,5.664,5.664,0,0,1-4.535,3.936,20.919,20.919,0,0,1-3.117.257c-1.052.041-2.107.009-3.161.009,0,.01,0,.021,0,.032-1.523-.027-3.046-.041-4.568-.085a7.359,7.359,0,0,1-3.729-.975,5.61,5.61,0,0,1-2.7-3.978,20.52,20.52,0,0,1-.251-3.117C.5,12.763.514,10.532.538,8.3A10.913,10.913,0,0,1,.985,4.794,5.664,5.664,0,0,1,5.519.859,18.044,18.044,0,0,1,8.636.6c2.239-.034,4.479-.021,6.718,0a10.9,10.9,0,0,1,3.486.443A5.663,5.663,0,0,1,22.791,5.6a18.24,18.24,0,0,1,.254,3.116C23.079,10.944,23.065,13.175,23.041,15.405ZM21.018,9c-.023-.854-.055-1.711-.142-2.561A3.786,3.786,0,0,0,17.67,2.869,18.409,18.409,0,0,0,14.6,2.635c-1.877-.035-3.755-.031-5.633,0a21.1,21.1,0,0,0-2.9.2,3.677,3.677,0,0,0-3.194,2.8,6.618,6.618,0,0,0-.241,1.6c-.048,2.04-.078,4.081-.071,6.121,0,1.3.034,2.6.147,3.894A3.752,3.752,0,0,0,5.9,20.835a18.335,18.335,0,0,0,3.093.238c1.869.035,3.739.024,5.608,0,.871-.01,1.744-.057,2.611-.143a4.113,4.113,0,0,0,2.2-.855,4.175,4.175,0,0,0,1.513-3.251c.083-1.717.1-3.437.146-5.156h-.046C21.023,10.782,21.042,9.892,21.018,9ZM17.8,7.2a1.375,1.375,0,0,1-1.352-1.38,1.357,1.357,0,0,1,1.387-1.334A1.329,1.329,0,0,1,19.16,5.868,1.357,1.357,0,0,1,17.8,7.2ZM11.772,17.641a5.787,5.787,0,1,1,5.807-5.72A5.767,5.767,0,0,1,11.772,17.641ZM11.785,8.1a3.755,3.755,0,1,0,3.761,3.749A3.773,3.773,0,0,0,11.785,8.1Z" transform="translate(1309.893 6596.17)" fill="#fff" fill-rule="evenodd"/>
  </g>
</svg>
