<svg xmlns="http://www.w3.org/2000/svg" width="21.738" height="21.693" viewBox="0 0 21.738 21.693">
  <path id="Path_273" data-name="Path 273" d="M20.7,18.4l-4.363-4.363a8.711,8.711,0,0,0,1.577-5.075,8.8,8.8,0,0,0-.706-3.479A8.77,8.77,0,0,0,12.437.709a8.924,8.924,0,0,0-6.958,0,8.769,8.769,0,0,0-4.77,4.77,8.924,8.924,0,0,0,0,6.958,8.771,8.771,0,0,0,4.77,4.77,8.8,8.8,0,0,0,3.479.706,8.711,8.711,0,0,0,5.075-1.577l4.363,4.35c.305.322,1.039,1.012,1.039,1.012l2.309-2.282S19.519,17.219,20.7,18.4Zm-7.714-5.412a5.488,5.488,0,0,1-4.026,1.673,5.488,5.488,0,0,1-4.026-1.673A5.488,5.488,0,0,1,3.259,8.958,5.488,5.488,0,0,1,4.932,4.932,5.487,5.487,0,0,1,8.958,3.259a5.489,5.489,0,0,1,4.026,1.673,5.488,5.488,0,0,1,1.673,4.026A5.489,5.489,0,0,1,12.983,12.983Z" transform="translate(-0.004 -0.004)" fill="#004d7a" fill-rule="evenodd"/>
</svg>
